<svg xmlns="http://www.w3.org/2000/svg" width="54.994" height="75" viewBox="0 0 54.994 75"><defs><style>.a{fill:#000;}</style></defs><g transform="translate(-50.656)"><path class="a" d="M105.65,28.181C105.65,12.642,93.314,0,78.154,0s-27.5,12.642-27.5,28.181a28.375,28.375,0,0,0,11.43,22.852c.342,2.181.9,4.651,1.282,6.791.588,3.286,1.8,2.377,3.6,2.419,1.386.037,7.379.18,10.053.244v3.26H76.28V72.51H70.046V75H86.424V72.51H80.29v-4.2a30.381,30.381,0,0,0,3.777.263,12.337,12.337,0,0,0,3.3-.374c1.609-.47,2.006-1.36,1.84-2.038-.244-1-1.614-1.54-3.118-1.245a23.556,23.556,0,0,1-5.8,0V63.75h-.964V60.48l9.685-.238c1.8-.044,3.007.865,3.6-2.419.362-2.05.895-4.406,1.236-6.523A28.363,28.363,0,0,0,105.65,28.181ZM86.3,66c1.063-.21,1.766.173,1.829.424.028.127-.2.459-1.079.717-2.05.6-5.513.221-6.761.051V66.032A23.756,23.756,0,0,0,86.3,66ZM56.913,28.181c0-12.021,9.528-21.8,21.239-21.8s21.24,9.779,21.24,21.8A21.975,21.975,0,0,1,91.981,44.7c-.249-.016-.519-.025-.83-.025-2.767,0-2.836-.344-2.836-3.493s-1.393-4.393-4.5-4.393c-2.5,0-4.963.135-5.834.189-.869-.054-3.336-.189-5.835-.189-3.1,0-4.5,1.247-4.5,4.393s-.069,3.493-2.839,3.493c-.18,0-.349,0-.513.009A21.986,21.986,0,0,1,56.913,28.181ZM86.484,56.645H69.491c-2.629,0,0-3.6.831-3.6.676,0,5.543.046,7.336.062v.007l.331,0,.33,0v-.007c1.8-.016,6.662-.062,7.337-.062C86.484,53.049,89.115,56.645,86.484,56.645Zm7.623-7.275a14.456,14.456,0,0,0,.087-1.515c0-1.453-.083-2.274-.643-2.716a23.391,23.391,0,0,0,7.229-16.961C100.78,15.395,90.63,5,78.154,5s-22.625,10.4-22.625,23.182a23.386,23.386,0,0,0,7.1,16.832c-.739.4-.845,1.236-.845,2.845,0,.378.024.788.061,1.224a27.015,27.015,0,0,1-9.8-20.9c0-14.777,11.714-26.8,26.115-26.8s26.115,12.021,26.115,26.8A27.014,27.014,0,0,1,94.107,49.371Z"/></g></svg>