<svg xmlns="http://www.w3.org/2000/svg" width="23.77" height="21" viewBox="0 0 23.77 21"><defs><style>.a{fill:#000;}</style></defs><g transform="translate(0 0)"><path class="a" d="M22.036,31.9a5.987,5.987,0,0,0-9.559.688,9.114,9.114,0,0,0-.592.959,9.107,9.107,0,0,0-.592-.959A5.987,5.987,0,0,0,1.734,31.9,7.205,7.205,0,0,0,0,36.685a8.823,8.823,0,0,0,2.43,5.789,54.1,54.1,0,0,0,6.082,5.682c.92.784,1.871,1.594,2.884,2.481l.03.027a.7.7,0,0,0,.917,0l.03-.027c1.013-.886,1.964-1.7,2.884-2.481a54.094,54.094,0,0,0,6.082-5.682,8.823,8.823,0,0,0,2.43-5.789A7.205,7.205,0,0,0,22.036,31.9ZM14.355,47.1c-.793.676-1.609,1.371-2.47,2.119-.86-.748-1.677-1.443-2.47-2.119C4.584,42.979,1.393,40.26,1.393,36.685A5.815,5.815,0,0,1,2.779,32.82a4.649,4.649,0,0,1,3.535-1.591,4.7,4.7,0,0,1,3.843,2.163,8.257,8.257,0,0,1,1.066,2.12.7.7,0,0,0,1.324,0,8.257,8.257,0,0,1,1.066-2.12,4.6,4.6,0,0,1,7.378-.572,5.815,5.815,0,0,1,1.386,3.865C22.378,40.26,19.186,42.979,14.355,47.1Z" transform="translate(0 -29.836)"/></g></svg>