<svg xmlns="http://www.w3.org/2000/svg" width="61.437" height="75" viewBox="0 0 61.437 75"><defs><style>.a{fill:#000;}</style></defs><g transform="translate(-33.704)"><g transform="translate(33.704)"><path class="a" d="M87.516,32.131A17.617,17.617,0,0,0,72.128.849H35.743c-2.967,0-2.456,16.1,0,16.1H59.927c-.007.229-.033.45-.033.677A17.616,17.616,0,0,0,74.637,35v3.813H72.6v3.813h2.034V44.91H72.6v3.813h2.034v7.492A7.293,7.293,0,0,0,72.6,61.263a7.456,7.456,0,0,0,10.635,6.66L87.976,75l1.969-1.32L85.2,66.594A7.274,7.274,0,0,0,87.082,58.8h.432V32.131Zm-10-20.947a6.4,6.4,0,0,1,3.569,1.081H73.949A6.412,6.412,0,0,1,77.517,11.184ZM73.2,12.858h8.639A6.476,6.476,0,0,1,83,14.256H72.039A6.461,6.461,0,0,1,73.2,12.858ZM71.712,14.85H83.32a6.518,6.518,0,0,1,.51,1.5H71.2A6.528,6.528,0,0,1,71.712,14.85Zm5.8,9.214a6.4,6.4,0,0,1-3.533-1.058h7.069A6.413,6.413,0,0,1,77.517,24.064Zm4.3-1.653H73.223A6.4,6.4,0,0,1,72.1,21.1H82.937A6.59,6.59,0,0,1,81.814,22.411Zm1.459-1.905H71.764a6.48,6.48,0,0,1-.5-1.378H83.774A6.307,6.307,0,0,1,83.273,20.506Zm.613-1.97H71.148a6.14,6.14,0,0,1-.071-.912,6.445,6.445,0,0,1,.035-.677H83.922c.021.224.038.45.038.677A6.829,6.829,0,0,1,83.886,18.536Z" transform="translate(-33.704)"/><path class="a" d="M81.406,183.366H79.549V163.421H77.81v19.945H76.418V163.421H74.68v19.945H72.823V163.421H71.08v19.945H69.342V163.421H67.6v19.945H65.747V163.421H64.008v19.945h-2.2V163.421H60.067v19.945H58.21V163.421H56.471v30.935l2.783,13.131H80.363l2.781-13.131V163.421H81.406Z" transform="translate(-50.202 -146.07)"/></g></g></svg>