<svg xmlns="http://www.w3.org/2000/svg" width="49.258" height="75" viewBox="0 0 49.258 75"><defs><style>.a{fill:#000;}</style></defs><g transform="translate(-65.41)"><g transform="translate(65.41)"><path class="a" d="M145.035,171.529c0-7.5-5.614-13.878-13.468-16.341V144.661H116.511v10.756c-7.474,2.62-12.731,8.848-12.731,16.116,0,6.052,3.647,11.38,9.181,14.509v4.648h22.77v-4.584C141.328,182.983,145.035,177.628,145.035,171.529Z" transform="translate(-95.776 -115.69)"/><path class="a" d="M88.133,19.035c.349.689.217,4.3.151,5.692H87.2v2.756H99.9V24.728H98.72v-5.2l6.493-3.759h6.852V13.81h-6.252L98.6,9.97l-.014.02L70.238,0,68.072,5.448,75.131,9v4.835L65.41,33.6l1.114,1.04S80.89,15.854,88.133,19.035ZM98.72,17.257v-5l4.5,2.392Z" transform="translate(-65.41)"/></g></g></svg>