<svg xmlns="http://www.w3.org/2000/svg" width="61.73" height="75.125" viewBox="0 0 61.73 75.125"><defs><style>.a{fill:#000;}</style></defs><g transform="translate(-2.589)"><path class="a" d="M29.42,71.746H50.593v3.378H29.42V71.746ZM48.544,15.638h2.041v55H29.417v-55h2.527V11.111H33.2V9.633h4V3.567l6.659.005V4.765H44.4V8.159h-.541V9.633h3.521v1.48h1.161v4.524h.005ZM34.71,19.5H32.03V67.312h2.68ZM2.589,23.4h19.96V75.125H2.589ZM4.1,41.1H21.044V24.909H4.1Zm14.812-29.25H6.355v9.292H18.912l0-9.292ZM63.99.748,63.778,0,45.259,5.256,45.471,6ZM45.8,7.129l-.212.748,18.522,5.256.21-.748Zm-.091-.1,17.4-.176L63.1,6.074l-17.4.178Z" transform="translate(0)"/></g></svg>