<svg xmlns="http://www.w3.org/2000/svg" width="39.979" height="24" viewBox="0 0 39.979 24"><defs><style>.a{fill:#504538;}</style></defs><path class="a" d="M14.892,70.846l5.191-4.76a1,1,0,0,1,.675-.262h6.309a1,1,0,0,1,.712.3l3.792,3.692h7.908a.5.5,0,0,0,.5-.5v-1a.5.5,0,0,0-.5-.5h-7.09l-3.2-3.117a2.973,2.973,0,0,0-2.118-.881H20.764A2.969,2.969,0,0,0,19,64.443a3.007,3.007,0,0,0-1.83-.643H12.825a3.024,3.024,0,0,0-2.124.881L7.584,67.81H.5a.5.5,0,0,0-.5.5v1a.5.5,0,0,0,.5.5H8.408l3.7-3.7a1,1,0,0,1,.706-.294H17.16c.056.137.019.044.069.181l-3.686,3.379a4.284,4.284,0,0,0,5.791,6.315l1.424-1.306L28.6,80.747a1,1,0,0,1,.144,1.406l-.593.731a1,1,0,0,1-1.406.144l-1.112-.9-2.592,3.186a1.321,1.321,0,0,1-1.837.212L19.3,83.9l-.65.8a3,3,0,0,1-4.16.493L8.87,79.81H.5a.5.5,0,0,0-.5.5v1a.5.5,0,0,0,.5.5H8.071l5.091,4.872a5.012,5.012,0,0,0,6.309-.012l.45.387a3.332,3.332,0,0,0,4.679-.481l1.368-1.68a3,3,0,0,0,3.748-.75l.593-.731a3,3,0,0,0,.656-1.605h8.514a.5.5,0,0,0,.5-.5v-1a.5.5,0,0,0-.5-.5h-9.07a3.168,3.168,0,0,0-.55-.612l-7.615-6.184,1.774-1.63a1,1,0,1,0-1.349-1.474l-4.691,4.3a2.36,2.36,0,0,1-3.23-.137A2.288,2.288,0,0,1,14.892,70.846Z" transform="translate(0 -63.8)"/></svg>