<svg xmlns="http://www.w3.org/2000/svg" width="27.428" height="24" viewBox="0 0 27.428 24"><defs><style>.a{fill:#504538;}</style></defs><path class="a" d="M24.755,33.647a7.327,7.327,0,0,0-10,.723L13.7,35.463l-1.055-1.088c-2.186-2.261-6.595-3.621-10-.729a7.686,7.686,0,0,0-.53,11.132l10.366,10.7A1.686,1.686,0,0,0,13.7,56a1.665,1.665,0,0,0,1.211-.52l10.366-10.7A7.677,7.677,0,0,0,24.755,33.647Zm-.7,9.943-10.329,10.7L3.353,43.59a5.967,5.967,0,0,1,.413-8.636c2.936-2.507,6.386-.691,7.65.616L13.7,37.932,15.99,35.57c1.243-1.286,4.725-3.107,7.65-.616A5.971,5.971,0,0,1,24.053,43.59Z" transform="translate(0.012 -32.002)"/></svg>