<svg xmlns="http://www.w3.org/2000/svg" width="67.409" height="67.996" viewBox="0 0 67.409 67.996"><defs><style>.a{fill:#000;}</style></defs><g transform="translate(-3.837 -6.643)"><path class="a" d="M23.238,33.739l3.688,6.147,2.819-2.819L23.6,33.38Z" transform="translate(3.084 7.601)"/><path class="a" d="M50.211,13.266a1.159,1.159,0,0,1,1.159-1.159,6.515,6.515,0,0,1,1.521.2,2.318,2.318,0,1,0-.255,2.968,2.35,2.35,0,0,0,.381-.523,4.4,4.4,0,0,0-1.647-.331,1.159,1.159,0,0,1-1.159-1.159Z" transform="translate(7.128 0.744)"/><path class="a" d="M65.012,17.44l.9-6.4a4.076,4.076,0,0,0-.793-3.058,3.36,3.36,0,0,0-2.631-1.336,3.2,3.2,0,0,0-.525.043L44.118,9.61a7.932,7.932,0,0,0-4.54,2.508L4.856,50.189a4.079,4.079,0,0,0,0,5.393l16.39,17.975a3.336,3.336,0,0,0,4.918,0l20.148-22.1C47.9,63.44,52.687,71.925,58.5,71.925c7.149,0,12.749-12.839,12.749-29.236,0-10.9-2.476-20.219-6.234-25.249ZM40.294,22.106l4.1-4.495a1.088,1.088,0,0,1,1.639,0,1.36,1.36,0,0,1,0,1.8l-3.279,3.6L46.031,26.6l1.639-1.8a1.088,1.088,0,0,1,1.639,0,1.36,1.36,0,0,1,0,1.8L47.67,28.4l3.278,3.6,3.279-3.6a1.088,1.088,0,0,1,1.639,0,1.36,1.36,0,0,1,0,1.8l-4.1,4.495a1.088,1.088,0,0,1-1.639,0L40.294,23.9A1.36,1.36,0,0,1,40.294,22.106ZM27.8,60.974l-3.279,3.595a1.087,1.087,0,0,1-1.613-.027,1.361,1.361,0,0,1-.026-1.769l3.278-3.6a1.36,1.36,0,0,0,0-1.8l-1.639-1.8a1.088,1.088,0,0,0-1.64,0l-1.639,1.8a3.264,3.264,0,0,1-4.918,0l-1.639-1.8a4.079,4.079,0,0,1,0-5.393l3.278-3.595a1.088,1.088,0,0,1,1.639,0,1.36,1.36,0,0,1,0,1.8l-3.278,3.595a1.36,1.36,0,0,0,0,1.8l1.639,1.8a1.088,1.088,0,0,0,1.64,0l1.639-1.8a3.264,3.264,0,0,1,4.918,0l1.639,1.8a4.079,4.079,0,0,1,0,5.393Zm11.986-13.2a1.1,1.1,0,0,1-1.59.436l-3.322-2.186L31.24,50.012l1.993,3.643a1.343,1.343,0,0,1-.4,1.745,1.1,1.1,0,0,1-1.591-.435L23.87,41.481a1.365,1.365,0,0,1,.174-1.552l1.64-1.8A1.083,1.083,0,0,1,27.1,37.94l12.293,8.09a1.343,1.343,0,0,1,.4,1.744Zm3.443-3.723a1.088,1.088,0,0,1-1.639,0L31.759,33.265a1.359,1.359,0,0,1,0-1.8,1.088,1.088,0,0,1,1.639,0l9.014,9.887,4.1-4.495a1.088,1.088,0,0,1,1.639,0,1.36,1.36,0,0,1,0,1.8ZM58.5,69.383c-4.784,0-8.924-8.762-10.094-20.219l12.49-13.7a9.173,9.173,0,0,0,2.283-4.938L64.5,21.088a14.072,14.072,0,0,0-2.411-3.342,4.52,4.52,0,0,1-4.428,2.444,4.729,4.729,0,0,1-3.905-3.349,5.434,5.434,0,0,1,1.094-5.3,4.454,4.454,0,0,1,6.556,0,5.3,5.3,0,0,1,1.354,3.543,12.5,12.5,0,0,1,2.257,2.363l-.506,3.611c2.647,4.9,4.417,12.84,4.417,21.634C68.929,57.158,64.151,69.383,58.5,69.383Z" transform="translate(0 0)"/></g></svg>