<svg xmlns="http://www.w3.org/2000/svg" width="27.401" height="75" viewBox="0 0 27.401 75"><defs><style>.a{fill:#000;}</style></defs><g transform="translate(-9.876 0)"><g transform="translate(9.876 0)"><path class="a" d="M37.255,56.226C36.9,52.349,32.935,8.072,32.935,3.364c0-4.923-18.709-4.024-18.709,0,0,3.851-3.974,48.946-4.318,52.865H9.876v8.81h2.475V75H13.8V68.217h.61V75h1V68.217h.612V75H17.04V68.217h.61V75h1V68.217h.612V75h1.108V68.217h.612V75h.993V68.217h.612V75H23.6V68.217h.612V75h.993V68.217h.614V75h1.2V68.217h.61V75h1V68.217h.61V75H30.26V68.217h.61V75h1V68.217h.61V75h1.108V68.217h.61V75h1.27V65.038h1.812v-8.81l-.022,0ZM23.578,33.3c1.549,0,2.81,2.59,2.81,5.791s-1.258,5.791-2.81,5.791-2.8-2.59-2.8-5.791S22.028,33.3,23.578,33.3ZM34.8,60.091H12.351V58.58H34.8Z" transform="translate(-9.876 0)"/><ellipse class="a" cx="1.843" cy="3.808" rx="1.843" ry="3.808" transform="translate(11.859 35.462)"/></g></g></svg>