<svg xmlns="http://www.w3.org/2000/svg" width="28" height="28" viewBox="0 0 28 28"><defs><style>.a{fill:#504538;}</style></defs><path class="a" d="M14,1.75A6.125,6.125,0,1,1,7.875,7.875,6.129,6.129,0,0,1,14,1.75m7,17.5a5.258,5.258,0,0,1,5.25,5.25v1.75H1.75V24.5A5.258,5.258,0,0,1,7,19.25c4.648,0,3.68.875,7,.875s2.346-.875,7-.875M14,0a7.875,7.875,0,1,0,7.875,7.875A7.877,7.877,0,0,0,14,0Zm7,17.5c-5.053,0-3.883.875-7,.875S12.048,17.5,7,17.5a7,7,0,0,0-7,7v1.75A1.748,1.748,0,0,0,1.75,28h24.5A1.748,1.748,0,0,0,28,26.25V24.5A7,7,0,0,0,21,17.5Z" transform="translate(0 0)"/></svg>